<svg width="173" height="24" viewBox="0 0 173 24" fill="none" xmlns="http://www.w3.org/2000/svg">
<path d="M14.256 9.326V7.698H17.644V24H14.256L12.892 19.93V23.164C11.748 23.7213 10.5013 24 9.152 24C7.59733 24 6.17467 23.6333 4.884 22.9C3.59333 22.1667 2.56667 21.184 1.804 19.952C1.04133 18.72 0.66 17.3487 0.66 15.838C0.66 14.342 1.04133 12.978 1.804 11.746C2.56667 10.514 3.59333 9.53133 4.884 8.798C6.17467 8.06467 7.59733 7.698 9.152 7.698C11.0733 7.698 12.7747 8.24067 14.256 9.326ZM9.152 20.612C10.56 20.612 11.7627 20.15 12.76 19.226C13.7573 18.2873 14.256 17.158 14.256 15.838C14.256 14.5327 13.7573 13.418 12.76 12.494C11.7627 11.5553 10.56 11.086 9.152 11.086C7.744 11.086 6.54133 11.5553 5.544 12.494C4.54667 13.418 4.048 14.5327 4.048 15.838C4.048 17.158 4.54667 18.2873 5.544 19.226C6.54133 20.15 7.744 20.612 9.152 20.612ZM20.0544 24V0.899998H23.4424V24H20.0544ZM26.0915 24V0.899998H29.4795V24H26.0915ZM45.0646 9.326V7.698H48.4526V24H45.0646L43.7006 19.93V23.164C42.5566 23.7213 41.3099 24 39.9606 24C38.4059 24 36.9833 23.6333 35.6926 22.9C34.4019 22.1667 33.3753 21.184 32.6126 19.952C31.8499 18.72 31.4686 17.3487 31.4686 15.838C31.4686 14.342 31.8499 12.978 32.6126 11.746C33.3753 10.514 34.4019 9.53133 35.6926 8.798C36.9833 8.06467 38.4059 7.698 39.9606 7.698C41.8819 7.698 43.5833 8.24067 45.0646 9.326ZM39.9606 20.612C41.3686 20.612 42.5713 20.15 43.5686 19.226C44.5659 18.2873 45.0646 17.158 45.0646 15.838C45.0646 14.5327 44.5659 13.418 43.5686 12.494C42.5713 11.5553 41.3686 11.086 39.9606 11.086C38.5526 11.086 37.3499 11.5553 36.3526 12.494C35.3553 13.418 34.8566 14.5327 34.8566 15.838C34.8566 17.158 35.3553 18.2873 36.3526 19.226C37.3499 20.15 38.5526 20.612 39.9606 20.612ZM60.169 7.698C61.2543 7.698 62.1783 7.852 62.941 8.16C63.7036 8.468 64.3343 8.87867 64.833 9.392C65.3463 9.89067 65.7496 10.4553 66.043 11.086C66.4243 11.922 66.6663 12.7727 66.769 13.638C66.8863 14.4887 66.945 15.222 66.945 15.838V24H63.557V15.838C63.557 15.266 63.5203 14.7307 63.447 14.232C63.3883 13.7187 63.271 13.2567 63.095 12.846C62.875 12.3033 62.5303 11.878 62.061 11.57C61.5916 11.2473 60.961 11.086 60.169 11.086C59.993 11.086 59.817 11.0933 59.641 11.108C58.2476 11.2547 56.9863 11.7607 55.857 12.626C54.7276 13.4767 54.119 14.5253 54.031 15.772C54.031 15.8013 54.031 15.8233 54.031 15.838V24H50.643V7.698H54.031L54.889 10.206L55.395 11.768V9.744C56.891 8.48267 58.3283 7.80067 59.707 7.698C59.8536 7.698 60.0076 7.698 60.169 7.698ZM88.2642 7.698C89.3935 7.698 90.3175 7.94 91.0362 8.424C91.7695 8.89333 92.3415 9.48733 92.7522 10.206C93.1775 10.9247 93.4782 11.6727 93.6542 12.45C93.8448 13.2127 93.9622 13.9093 94.0062 14.54C94.0502 15.156 94.0722 15.5887 94.0722 15.838V24H90.6842V15.838C90.6842 15.5593 90.6695 15.1633 90.6402 14.65C90.6255 14.122 90.5448 13.5867 90.3982 13.044C90.2662 12.5013 90.0315 12.0393 89.6942 11.658C89.3715 11.2767 88.8948 11.086 88.2642 11.086C87.9415 11.086 87.5015 11.2033 86.9442 11.438C86.3868 11.6727 85.8222 12.0027 85.2502 12.428C84.6782 12.8387 84.1942 13.33 83.7982 13.902C83.4022 14.474 83.2042 15.0973 83.2042 15.772C83.2042 15.8013 83.2042 15.8233 83.2042 15.838V24H79.7942V15.838C79.7942 15.75 79.7942 15.6327 79.7942 15.486C79.8088 15.134 79.7942 14.716 79.7502 14.232C79.7062 13.7333 79.6035 13.2493 79.4422 12.78C79.2955 12.296 79.0608 11.8927 78.7382 11.57C78.4155 11.2473 77.9682 11.086 77.3962 11.086C77.0735 11.086 76.6335 11.2033 76.0762 11.438C75.5188 11.6727 74.9542 12.0027 74.3822 12.428C73.8102 12.8387 73.3188 13.33 72.9082 13.902C72.5122 14.474 72.3142 15.0973 72.3142 15.772C72.3142 15.8013 72.3142 15.8233 72.3142 15.838V24H68.9262V7.698H72.3142L73.1722 10.206L73.6782 11.768V9.744C74.0155 9.36267 74.3382 9.04 74.6462 8.776C74.9688 8.512 75.2768 8.29933 75.5702 8.138C75.8782 7.97667 76.1788 7.86667 76.4722 7.808C76.7802 7.73467 77.0882 7.698 77.3962 7.698C78.3495 7.698 79.1488 7.86667 79.7942 8.204C80.4688 8.556 81.0188 9.018 81.4442 9.59C81.8842 10.1473 82.2288 10.756 82.4782 11.416C82.4782 11.4453 82.4855 11.4673 82.5002 11.482C83.2335 10.3967 84.1355 9.49467 85.2062 8.776C86.2768 8.05733 87.2962 7.698 88.2642 7.698ZM96.9629 24V7.698H100.351V24H96.9629ZM98.6569 0.899998C99.3169 0.899998 99.8743 1.13467 100.329 1.604C100.798 2.05867 101.033 2.616 101.033 3.276C101.033 3.936 100.798 4.50067 100.329 4.97C99.8743 5.42467 99.3169 5.652 98.6569 5.652C97.9969 5.652 97.4323 5.42467 96.9629 4.97C96.5083 4.50067 96.2809 3.936 96.2809 3.276C96.2809 2.616 96.5083 2.05867 96.9629 1.604C97.4323 1.13467 97.9969 0.899998 98.6569 0.899998ZM112.978 7.698C114.063 7.698 114.987 7.852 115.75 8.16C116.512 8.468 117.143 8.87867 117.642 9.392C118.155 9.89067 118.558 10.4553 118.852 11.086C119.233 11.922 119.475 12.7727 119.578 13.638C119.695 14.4887 119.754 15.222 119.754 15.838V24H116.366V15.838C116.366 15.266 116.329 14.7307 116.256 14.232C116.197 13.7187 116.08 13.2567 115.904 12.846C115.684 12.3033 115.339 11.878 114.87 11.57C114.4 11.2473 113.77 11.086 112.978 11.086C112.802 11.086 112.626 11.0933 112.45 11.108C111.056 11.2547 109.795 11.7607 108.666 12.626C107.536 13.4767 106.928 14.5253 106.84 15.772C106.84 15.8013 106.84 15.8233 106.84 15.838V24H103.452V7.698H106.84L107.698 10.206L108.204 11.768V9.744C109.7 8.48267 111.137 7.80067 112.516 7.698C112.662 7.698 112.816 7.698 112.978 7.698ZM122.637 24V7.698H126.025V24H122.637ZM124.331 0.899998C124.991 0.899998 125.548 1.13467 126.003 1.604C126.472 2.05867 126.707 2.616 126.707 3.276C126.707 3.936 126.472 4.50067 126.003 4.97C125.548 5.42467 124.991 5.652 124.331 5.652C123.671 5.652 123.106 5.42467 122.637 4.97C122.182 4.50067 121.955 3.936 121.955 3.276C121.955 2.616 122.182 2.05867 122.637 1.604C123.106 1.13467 123.671 0.899998 124.331 0.899998ZM141.819 15.838V7.698H145.207V24H141.819L140.983 21.47L140.455 19.93V21.954C138.974 23.2153 137.537 23.89 136.143 23.978C135.997 23.9927 135.85 24 135.703 24C134.603 24 133.672 23.846 132.909 23.538C132.147 23.23 131.516 22.8193 131.017 22.306C130.519 21.7927 130.123 21.228 129.829 20.612C129.448 19.776 129.199 18.9327 129.081 18.082C128.964 17.2167 128.905 16.4687 128.905 15.838V7.698H132.293V15.838C132.293 16.41 132.33 16.9527 132.403 17.466C132.477 17.9793 132.594 18.4413 132.755 18.852C132.99 19.3947 133.342 19.8273 133.811 20.15C134.281 20.458 134.911 20.612 135.703 20.612C135.879 20.612 136.048 20.5973 136.209 20.568C137.617 20.436 138.879 19.9373 139.993 19.072C141.123 18.2067 141.731 17.1507 141.819 15.904C141.819 15.8893 141.819 15.8673 141.819 15.838ZM166.747 7.698C167.876 7.698 168.8 7.94 169.519 8.424C170.252 8.89333 170.824 9.48733 171.235 10.206C171.66 10.9247 171.961 11.6727 172.137 12.45C172.327 13.2127 172.445 13.9093 172.489 14.54C172.533 15.156 172.555 15.5887 172.555 15.838V24H169.167V15.838C169.167 15.5593 169.152 15.1633 169.123 14.65C169.108 14.122 169.027 13.5867 168.881 13.044C168.749 12.5013 168.514 12.0393 168.177 11.658C167.854 11.2767 167.377 11.086 166.747 11.086C166.424 11.086 165.984 11.2033 165.427 11.438C164.869 11.6727 164.305 12.0027 163.733 12.428C163.161 12.8387 162.677 13.33 162.281 13.902C161.885 14.474 161.687 15.0973 161.687 15.772C161.687 15.8013 161.687 15.8233 161.687 15.838V24H158.277V15.838C158.277 15.75 158.277 15.6327 158.277 15.486C158.291 15.134 158.277 14.716 158.233 14.232C158.189 13.7333 158.086 13.2493 157.925 12.78C157.778 12.296 157.543 11.8927 157.221 11.57C156.898 11.2473 156.451 11.086 155.879 11.086C155.556 11.086 155.116 11.2033 154.559 11.438C154.001 11.6727 153.437 12.0027 152.865 12.428C152.293 12.8387 151.801 13.33 151.391 13.902C150.995 14.474 150.797 15.0973 150.797 15.772C150.797 15.8013 150.797 15.8233 150.797 15.838V24H147.409V7.698H150.797L151.655 10.206L152.161 11.768V9.744C152.498 9.36267 152.821 9.04 153.129 8.776C153.451 8.512 153.759 8.29933 154.053 8.138C154.361 7.97667 154.661 7.86667 154.955 7.808C155.263 7.73467 155.571 7.698 155.879 7.698C156.832 7.698 157.631 7.86667 158.277 8.204C158.951 8.556 159.501 9.018 159.927 9.59C160.367 10.1473 160.711 10.756 160.961 11.416C160.961 11.4453 160.968 11.4673 160.983 11.482C161.716 10.3967 162.618 9.49467 163.689 8.776C164.759 8.05733 165.779 7.698 166.747 7.698Z" fill="#034078"/>
</svg>
